<svg xmlns="http://www.w3.org/2000/svg" viewBox="0 0 1000 1000" fill="none">
  <!-- Same framing as custom-ring-finished.jpg: top-down, centered, white ground -->
  <rect width="1000" height="1000" fill="#ffffff"/>

  <!--
    CAD prototype of the SAME ring as custom-ring-finished.jpg:
    top-down scalloped flower halo, center cluster, split-shank triple pavé
  -->
  <g transform="translate(500 470)" stroke="#1a1a1a" stroke-linecap="round" stroke-linejoin="round" fill="none">

    <!-- Center cluster -->
    <circle cx="0" cy="0" r="52" stroke-width="1.8"/>
    <circle cx="0" cy="0" r="34" stroke-width="1.2" opacity="0.7"/>
    <circle cx="0" cy="0" r="14" stroke-width="1.1" opacity="0.55"/>
    <g stroke-width="0.9" opacity="0.55">
      <circle cx="0" cy="-22" r="9"/>
      <circle cx="19" cy="-11" r="9"/>
      <circle cx="19" cy="11" r="9"/>
      <circle cx="0" cy="22" r="9"/>
      <circle cx="-19" cy="11" r="9"/>
      <circle cx="-19" cy="-11" r="9"/>
      <circle cx="0" cy="0" r="10"/>
    </g>
    <g stroke-width="0.55" opacity="0.35">
      <path d="M0 -31 L0 -13 M-9 -22 L9 -22"/>
      <path d="M0 -10 L0 10 M-10 0 L10 0"/>
      <path d="M19 -20 L19 -2 M10 -11 L28 -11"/>
    </g>

    <circle cx="0" cy="0" r="62" stroke-width="2.2"/>

    <!-- Scalloped flower halo — 16 petals -->
    <g stroke-width="1.6">
      <path d="
        M 0 -118
        C 18 -118, 32 -108, 38 -92
        C 48 -108, 68 -118, 86 -112
        C 92 -96, 98 -78, 92 -62
        C 108 -68, 122 -58, 128 -40
        C 118 -28, 118 -8, 128 4
        C 122 22, 108 32, 92 38
        C 98 54, 92 72, 86 88
        C 68 94, 48 88, 38 72
        C 32 88, 18 98, 0 98
        C -18 98, -32 88, -38 72
        C -48 88, -68 94, -86 88
        C -92 72, -98 54, -92 38
        C -108 32, -122 22, -128 4
        C -118 -8, -118 -28, -128 -40
        C -122 -58, -108 -68, -92 -62
        C -98 -78, -92 -96, -86 -112
        C -68 -118, -48 -108, -38 -92
        C -32 -108, -18 -118, 0 -118
        Z"/>
    </g>

    <g stroke-width="1.15">
      <circle cx="0" cy="-96" r="11"/>
      <circle cx="37" cy="-89" r="10.5"/>
      <circle cx="68" cy="-68" r="10.5"/>
      <circle cx="89" cy="-37" r="10.5"/>
      <circle cx="96" cy="0" r="11"/>
      <circle cx="89" cy="37" r="10.5"/>
      <circle cx="68" cy="68" r="10.5"/>
      <circle cx="37" cy="89" r="10.5"/>
      <circle cx="0" cy="96" r="11"/>
      <circle cx="-37" cy="89" r="10.5"/>
      <circle cx="-68" cy="68" r="10.5"/>
      <circle cx="-89" cy="37" r="10.5"/>
      <circle cx="-96" cy="0" r="11"/>
      <circle cx="-89" cy="-37" r="10.5"/>
      <circle cx="-68" cy="-68" r="10.5"/>
      <circle cx="-37" cy="-89" r="10.5"/>
    </g>
    <g stroke-width="0.6" opacity="0.4">
      <path d="M0 -105 L0 -87 M-9 -96 L9 -96"/>
      <path d="M96 -9 L96 9 M87 0 L105 0"/>
      <path d="M0 87 L0 105 M-9 96 L9 96"/>
      <path d="M-96 -9 L-96 9 M-105 0 L-87 0"/>
      <path d="M68 -77 L68 -59 M59 -68 L77 -68"/>
      <path d="M-68 -77 L-68 -59 M-77 -68 L-59 -68"/>
      <path d="M68 59 L68 77 M59 68 L77 68"/>
      <path d="M-68 59 L-68 77 M-77 68 L-59 68"/>
    </g>

    <g stroke-width="1" opacity="0.35">
      <path d="M22 -90 L48 -110"/>
      <path d="M90 -22 L110 -48"/>
      <path d="M90 22 L110 48"/>
      <path d="M22 90 L48 110"/>
      <path d="M-22 90 L-48 110"/>
      <path d="M-90 22 L-110 48"/>
      <path d="M-90 -22 L-110 -48"/>
      <path d="M-22 -90 L-48 -110"/>
    </g>

    <!-- Split shank — left (3 pave rows) -->
    <g transform="rotate(-18)">
      <path d="M-55 70 C-95 130, -115 220, -125 340" stroke-width="1.5" opacity="0.85"/>
      <path d="M-30 78 C-70 140, -88 230, -95 345" stroke-width="1.5" opacity="0.85"/>
      <path d="M-5 82 C-42 148, -58 238, -62 348" stroke-width="1.5" opacity="0.85"/>
      <path d="M-62 68 C-108 128, -132 230, -140 350" stroke-width="2"/>
      <path d="M5 85 C-28 155, -40 250, -42 352" stroke-width="2"/>
      <g stroke-width="1">
        <circle cx="-48" cy="105" r="5.5"/><circle cx="-58" cy="130" r="5.5"/><circle cx="-68" cy="156" r="5.2"/>
        <circle cx="-76" cy="182" r="5"/><circle cx="-84" cy="210" r="4.8"/><circle cx="-90" cy="238" r="4.5"/>
        <circle cx="-96" cy="266" r="4.2"/><circle cx="-100" cy="294" r="4"/><circle cx="-104" cy="322" r="3.8"/>
        <circle cx="-28" cy="112" r="5.5"/><circle cx="-38" cy="138" r="5.5"/><circle cx="-46" cy="164" r="5.2"/>
        <circle cx="-54" cy="190" r="5"/><circle cx="-60" cy="218" r="4.8"/><circle cx="-66" cy="246" r="4.5"/>
        <circle cx="-70" cy="274" r="4.2"/><circle cx="-74" cy="302" r="4"/><circle cx="-76" cy="330" r="3.8"/>
        <circle cx="-10" cy="118" r="5.2"/><circle cx="-18" cy="144" r="5.2"/><circle cx="-26" cy="170" r="5"/>
        <circle cx="-32" cy="198" r="4.8"/><circle cx="-38" cy="226" r="4.5"/><circle cx="-42" cy="254" r="4.2"/>
        <circle cx="-46" cy="282" r="4"/><circle cx="-48" cy="310" r="3.8"/><circle cx="-50" cy="336" r="3.5"/>
      </g>
    </g>

    <!-- Split shank — right -->
    <g transform="rotate(18)">
      <path d="M55 70 C95 130, 115 220, 125 340" stroke-width="1.5" opacity="0.85"/>
      <path d="M30 78 C70 140, 88 230, 95 345" stroke-width="1.5" opacity="0.85"/>
      <path d="M5 82 C42 148, 58 238, 62 348" stroke-width="1.5" opacity="0.85"/>
      <path d="M62 68 C108 128, 132 230, 140 350" stroke-width="2"/>
      <path d="M-5 85 C28 155, 40 250, 42 352" stroke-width="2"/>
      <g stroke-width="1">
        <circle cx="48" cy="105" r="5.5"/><circle cx="58" cy="130" r="5.5"/><circle cx="68" cy="156" r="5.2"/>
        <circle cx="76" cy="182" r="5"/><circle cx="84" cy="210" r="4.8"/><circle cx="90" cy="238" r="4.5"/>
        <circle cx="96" cy="266" r="4.2"/><circle cx="100" cy="294" r="4"/><circle cx="104" cy="322" r="3.8"/>
        <circle cx="28" cy="112" r="5.5"/><circle cx="38" cy="138" r="5.5"/><circle cx="46" cy="164" r="5.2"/>
        <circle cx="54" cy="190" r="5"/><circle cx="60" cy="218" r="4.8"/><circle cx="66" cy="246" r="4.5"/>
        <circle cx="70" cy="274" r="4.2"/><circle cx="74" cy="302" r="4"/><circle cx="76" cy="330" r="3.8"/>
        <circle cx="10" cy="118" r="5.2"/><circle cx="18" cy="144" r="5.2"/><circle cx="26" cy="170" r="5"/>
        <circle cx="32" cy="198" r="4.8"/><circle cx="38" cy="226" r="4.5"/><circle cx="42" cy="254" r="4.2"/>
        <circle cx="46" cy="282" r="4"/><circle cx="48" cy="310" r="3.8"/><circle cx="50" cy="336" r="3.5"/>
      </g>
    </g>

    <g stroke-width="0.8" opacity="0.2" stroke-dasharray="3 4">
      <circle cx="0" cy="0" r="130"/>
      <path d="M0 -160 L0 370"/>
      <path d="M-160 0 L160 0"/>
    </g>
  </g>
</svg>
